<svg width="116" height="18" viewBox="0 0 116 18" fill="none" xmlns="http://www.w3.org/2000/svg">
<path d="M5.994 0.454H9.864L6.102 4.648C6.27 4.588 6.444 4.546 6.624 4.522C6.816 4.498 7.026 4.486 7.254 4.486C7.89 4.486 8.502 4.648 9.09 4.972C9.69 5.296 10.182 5.764 10.566 6.376C10.962 6.988 11.16 7.72 11.16 8.572C11.16 9.604 10.926 10.474 10.458 11.182C10.002 11.878 9.384 12.406 8.604 12.766C7.836 13.114 6.978 13.288 6.03 13.288C5.094 13.288 4.236 13.114 3.456 12.766C2.676 12.406 2.052 11.878 1.584 11.182C1.128 10.474 0.9 9.604 0.9 8.572C0.9 7.888 1.044 7.258 1.332 6.682C1.62 6.106 1.968 5.566 2.376 5.062L5.994 0.454ZM3.906 8.572C3.906 9.208 4.11 9.724 4.518 10.12C4.926 10.504 5.43 10.696 6.03 10.696C6.63 10.696 7.128 10.504 7.524 10.12C7.932 9.724 8.136 9.208 8.136 8.572C8.136 7.936 7.932 7.42 7.524 7.024C7.128 6.628 6.63 6.43 6.03 6.43C5.43 6.43 4.926 6.628 4.518 7.024C4.11 7.42 3.906 7.936 3.906 8.572ZM19.6555 8.572C20.0395 9.256 20.4895 9.802 21.0055 10.21C21.5335 10.606 22.1155 10.804 22.7515 10.804C23.2075 10.804 23.5735 10.696 23.8495 10.48C24.1375 10.252 24.2815 9.946 24.2815 9.562C24.2815 9.25 24.1975 8.992 24.0295 8.788C23.8615 8.584 23.5915 8.392 23.2195 8.212C22.8595 8.032 22.3735 7.828 21.7615 7.6C21.4495 7.48 21.1015 7.324 20.7175 7.132C20.3335 6.94 19.9615 6.694 19.6015 6.394C19.2535 6.094 18.9655 5.728 18.7375 5.296C18.5095 4.852 18.3955 4.324 18.3955 3.712C18.3955 2.956 18.5875 2.314 18.9715 1.786C19.3675 1.246 19.8955 0.831999 20.5555 0.543999C21.2275 0.256 21.9715 0.112 22.7875 0.112C23.6395 0.112 24.3715 0.25 24.9835 0.526C25.5955 0.802 26.1055 1.15 26.5135 1.57C26.9215 1.99 27.2335 2.416 27.4495 2.848L25.1275 4.144C24.8515 3.688 24.5215 3.328 24.1375 3.064C23.7535 2.788 23.3155 2.65 22.8235 2.65C22.3915 2.65 22.0615 2.746 21.8335 2.938C21.6175 3.118 21.5095 3.346 21.5095 3.622C21.5095 4.054 21.7495 4.408 22.2295 4.684C22.7215 4.948 23.4055 5.236 24.2815 5.548C24.8695 5.752 25.4035 6.028 25.8835 6.376C26.3755 6.712 26.7655 7.132 27.0535 7.636C27.3535 8.128 27.5035 8.722 27.5035 9.418C27.5035 10.27 27.2815 10.996 26.8375 11.596C26.3935 12.184 25.8115 12.634 25.0915 12.946C24.3835 13.246 23.6335 13.396 22.8415 13.396C22.0255 13.396 21.2635 13.252 20.5555 12.964C19.8595 12.664 19.2475 12.268 18.7195 11.776C18.2035 11.272 17.8075 10.714 17.5315 10.102L19.6555 8.572ZM31.8615 9.76C31.8615 10.24 31.9455 10.612 32.1135 10.876C32.2935 11.14 32.6055 11.272 33.0495 11.272C33.4815 11.272 33.8295 11.14 34.0935 10.876C34.3575 10.612 34.4895 10.24 34.4895 9.76V4.72H37.2255V13H34.4895V11.758C34.2495 12.202 33.9195 12.556 33.4995 12.82C33.0915 13.072 32.5815 13.198 31.9695 13.198C30.9495 13.198 30.1995 12.922 29.7195 12.37C29.2395 11.806 28.9995 11.032 28.9995 10.048V4.72H31.8615V9.76ZM38.797 13.594H41.443C41.491 14.11 41.683 14.494 42.019 14.746C42.355 14.998 42.787 15.124 43.315 15.124C43.891 15.124 44.377 14.932 44.773 14.548C45.181 14.164 45.385 13.588 45.385 12.82V11.524C44.725 12.484 43.777 12.964 42.541 12.964C41.869 12.964 41.233 12.808 40.633 12.496C40.033 12.184 39.547 11.716 39.175 11.092C38.803 10.456 38.617 9.676 38.617 8.752C38.617 7.816 38.803 7.036 39.175 6.412C39.547 5.788 40.033 5.32 40.633 5.008C41.233 4.696 41.869 4.54 42.541 4.54C43.777 4.54 44.725 5.02 45.385 5.98V4.72H47.995V12.82C47.995 13.888 47.791 14.752 47.383 15.412C46.975 16.072 46.423 16.552 45.727 16.852C45.043 17.152 44.281 17.302 43.441 17.302C42.409 17.302 41.563 17.146 40.903 16.834C40.243 16.522 39.745 16.084 39.409 15.52C39.073 14.968 38.869 14.326 38.797 13.594ZM41.479 8.752C41.479 9.4 41.671 9.898 42.055 10.246C42.451 10.594 42.919 10.768 43.459 10.768C43.771 10.768 44.071 10.696 44.359 10.552C44.659 10.396 44.905 10.168 45.097 9.868C45.289 9.568 45.385 9.196 45.385 8.752C45.385 8.296 45.289 7.924 45.097 7.636C44.905 7.336 44.659 7.114 44.359 6.97C44.071 6.814 43.771 6.736 43.459 6.736C42.919 6.736 42.451 6.91 42.055 7.258C41.671 7.606 41.479 8.104 41.479 8.752ZM49.5333 13.594H52.1793C52.2273 14.11 52.4193 14.494 52.7553 14.746C53.0913 14.998 53.5233 15.124 54.0513 15.124C54.6273 15.124 55.1133 14.932 55.5093 14.548C55.9173 14.164 56.1213 13.588 56.1213 12.82V11.524C55.4613 12.484 54.5133 12.964 53.2773 12.964C52.6053 12.964 51.9693 12.808 51.3693 12.496C50.7693 12.184 50.2833 11.716 49.9113 11.092C49.5393 10.456 49.3533 9.676 49.3533 8.752C49.3533 7.816 49.5393 7.036 49.9113 6.412C50.2833 5.788 50.7693 5.32 51.3693 5.008C51.9693 4.696 52.6053 4.54 53.2773 4.54C54.5133 4.54 55.4613 5.02 56.1213 5.98V4.72H58.7313V12.82C58.7313 13.888 58.5273 14.752 58.1193 15.412C57.7113 16.072 57.1593 16.552 56.4633 16.852C55.7793 17.152 55.0173 17.302 54.1773 17.302C53.1453 17.302 52.2993 17.146 51.6393 16.834C50.9793 16.522 50.4813 16.084 50.1453 15.52C49.8093 14.968 49.6053 14.326 49.5333 13.594ZM52.2153 8.752C52.2153 9.4 52.4073 9.898 52.7913 10.246C53.1873 10.594 53.6553 10.768 54.1953 10.768C54.5073 10.768 54.8073 10.696 55.0953 10.552C55.3953 10.396 55.6413 10.168 55.8333 9.868C56.0253 9.568 56.1213 9.196 56.1213 8.752C56.1213 8.296 56.0253 7.924 55.8333 7.636C55.6413 7.336 55.3953 7.114 55.0953 6.97C54.8073 6.814 54.5073 6.736 54.1953 6.736C53.6553 6.736 53.1873 6.91 52.7913 7.258C52.4073 7.606 52.2153 8.104 52.2153 8.752ZM64.8057 13.18C63.8337 13.18 62.9937 13.006 62.2857 12.658C61.5897 12.298 61.0497 11.794 60.6657 11.146C60.2817 10.498 60.0897 9.736 60.0897 8.86C60.0897 7.516 60.5037 6.46 61.3317 5.692C62.1597 4.924 63.2997 4.54 64.7517 4.54C66.1797 4.54 67.2777 4.906 68.0457 5.638C68.8257 6.37 69.2157 7.402 69.2157 8.734C69.2157 8.866 69.2157 8.992 69.2157 9.112C69.2157 9.232 69.2097 9.34 69.1977 9.436H62.8797C62.9517 10 63.1497 10.438 63.4737 10.75C63.7977 11.062 64.2237 11.218 64.7517 11.218C65.7117 11.218 66.3957 10.858 66.8037 10.138L69.2517 10.732C68.3757 12.364 66.8937 13.18 64.8057 13.18ZM64.6977 6.358C63.7137 6.358 63.1197 6.88 62.9157 7.924H66.2997C66.2517 7.444 66.0837 7.066 65.7957 6.79C65.5197 6.502 65.1537 6.358 64.6977 6.358ZM71.094 9.994C71.73 10.522 72.27 10.882 72.714 11.074C73.17 11.254 73.542 11.344 73.83 11.344C74.37 11.344 74.64 11.128 74.64 10.696C74.64 10.432 74.514 10.222 74.262 10.066C74.01 9.898 73.548 9.706 72.876 9.49C72.492 9.358 72.12 9.19 71.76 8.986C71.4 8.782 71.106 8.512 70.878 8.176C70.65 7.84 70.536 7.408 70.536 6.88C70.536 6.124 70.83 5.548 71.418 5.152C72.006 4.744 72.744 4.54 73.632 4.54C74.34 4.54 74.988 4.66 75.576 4.9C76.164 5.128 76.698 5.416 77.178 5.764L76.206 7.546C75.87 7.222 75.474 6.952 75.018 6.736C74.574 6.52 74.166 6.412 73.794 6.412C73.554 6.412 73.368 6.46 73.236 6.556C73.116 6.652 73.056 6.778 73.056 6.934C73.056 7.21 73.218 7.414 73.542 7.546C73.878 7.678 74.352 7.864 74.964 8.104C75.396 8.26 75.792 8.44 76.152 8.644C76.512 8.848 76.8 9.106 77.016 9.418C77.244 9.73 77.358 10.144 77.358 10.66C77.358 11.536 77.088 12.202 76.548 12.658C76.008 13.114 75.24 13.342 74.244 13.342C73.344 13.342 72.546 13.198 71.85 12.91C71.154 12.61 70.524 12.238 69.96 11.794L71.094 9.994ZM77.631 4.72H79.089V1.84H81.717V4.72H83.175V6.97H81.717V13H79.089V6.97H77.631V4.72ZM83.9215 1.624C83.9215 1.192 84.0715 0.837999 84.3715 0.561999C84.6835 0.285999 85.0615 0.147999 85.5055 0.147999C85.9495 0.147999 86.3215 0.285999 86.6215 0.561999C86.9335 0.837999 87.0895 1.192 87.0895 1.624C87.0895 2.056 86.9335 2.41 86.6215 2.686C86.3215 2.95 85.9495 3.082 85.5055 3.082C85.0615 3.082 84.6835 2.95 84.3715 2.686C84.0715 2.41 83.9215 2.056 83.9215 1.624ZM84.1735 4.72H86.8195V13H84.1735V4.72ZM88.3221 8.86C88.3221 7.984 88.5261 7.222 88.9341 6.574C89.3541 5.926 89.9181 5.422 90.6261 5.062C91.3461 4.702 92.1561 4.522 93.0561 4.522C93.9681 4.522 94.7781 4.702 95.4861 5.062C96.1941 5.422 96.7521 5.926 97.1601 6.574C97.5801 7.222 97.7901 7.984 97.7901 8.86C97.7901 9.724 97.5801 10.48 97.1601 11.128C96.7521 11.776 96.1941 12.28 95.4861 12.64C94.7781 13 93.9681 13.18 93.0561 13.18C92.1561 13.18 91.3461 13 90.6261 12.64C89.9181 12.28 89.3541 11.776 88.9341 11.128C88.5261 10.48 88.3221 9.724 88.3221 8.86ZM91.1301 8.86C91.1301 9.496 91.3161 10 91.6881 10.372C92.0721 10.744 92.5281 10.93 93.0561 10.93C93.5841 10.93 94.0341 10.744 94.4061 10.372C94.7901 10 94.9821 9.496 94.9821 8.86C94.9821 8.224 94.7901 7.72 94.4061 7.348C94.0341 6.964 93.5841 6.772 93.0561 6.772C92.5281 6.772 92.0721 6.964 91.6881 7.348C91.3161 7.72 91.1301 8.224 91.1301 8.86ZM104.54 7.96C104.54 7.468 104.45 7.096 104.27 6.844C104.09 6.58 103.778 6.448 103.334 6.448C102.902 6.448 102.554 6.58 102.29 6.844C102.026 7.096 101.894 7.468 101.894 7.96V13H99.1577V4.72H101.894V5.962C102.134 5.506 102.458 5.152 102.866 4.9C103.286 4.648 103.802 4.522 104.414 4.522C105.446 4.522 106.196 4.798 106.664 5.35C107.144 5.902 107.384 6.676 107.384 7.672V13H104.54V7.96ZM109.711 9.994C110.347 10.522 110.887 10.882 111.331 11.074C111.787 11.254 112.159 11.344 112.447 11.344C112.987 11.344 113.257 11.128 113.257 10.696C113.257 10.432 113.131 10.222 112.879 10.066C112.627 9.898 112.165 9.706 111.493 9.49C111.109 9.358 110.737 9.19 110.377 8.986C110.017 8.782 109.723 8.512 109.495 8.176C109.267 7.84 109.153 7.408 109.153 6.88C109.153 6.124 109.447 5.548 110.035 5.152C110.623 4.744 111.361 4.54 112.249 4.54C112.957 4.54 113.605 4.66 114.193 4.9C114.781 5.128 115.315 5.416 115.795 5.764L114.823 7.546C114.487 7.222 114.091 6.952 113.635 6.736C113.191 6.52 112.783 6.412 112.411 6.412C112.171 6.412 111.985 6.46 111.853 6.556C111.733 6.652 111.673 6.778 111.673 6.934C111.673 7.21 111.835 7.414 112.159 7.546C112.495 7.678 112.969 7.864 113.581 8.104C114.013 8.26 114.409 8.44 114.769 8.644C115.129 8.848 115.417 9.106 115.633 9.418C115.861 9.73 115.975 10.144 115.975 10.66C115.975 11.536 115.705 12.202 115.165 12.658C114.625 13.114 113.857 13.342 112.861 13.342C111.961 13.342 111.163 13.198 110.467 12.91C109.771 12.61 109.141 12.238 108.577 11.794L109.711 9.994Z" fill="white"/>
</svg>
